Coordinates
version=1
nRows=11
nColumns=21
inDegrees=yes

Units are S.I. units (second, meters, Newtons, ...)
If the header above contains a line with 'inDegrees', this indicates whether rotational values are in degrees (yes) or radians (no).

endheader
time	sternoclavicular_r2	sternoclavicular_r3	unrotscap_r3	unrotscap_r2	acromioclavicular_r2	acromioclavicular_r3	acromioclavicular_r1	unrothum_r1	unrothum_r3	unrothum_r2	elv_angle	shoulder_elev	shoulder1_r2	shoulder_rot	elbow_flexion	pro_sup	deviation	flexion	wrist_hand_r1	wrist_hand_r3
      3.01507538	     -2.80852349	      1.18955799	     -1.18955799	      2.80852349	     -0.56866888	      4.59578183	      2.06577230	     -2.06577230	     -4.59578183	      0.56866888	     69.93578924	     11.60544295	    -69.93578924	      8.90034679	     78.63558719	     81.05918881	      0.00000000	     -0.00000000	     -0.00000000	      0.00000000
      3.03517588	     -2.80852349	      1.18955799	     -1.18955799	      2.80852349	     -0.56866888	      4.59578183	      2.06577230	     -2.06577230	     -4.59578183	      0.56866888	     69.93578924	     11.60544295	    -69.93578924	      8.90034679	     78.93935678	     81.11116763	      0.00000000	     -0.00000000	     -0.00000000	      0.00000000
      3.05527638	     -2.80852349	      1.18955799	     -1.18955799	      2.80852349	     -0.56866888	      4.59578183	      2.06577230	     -2.06577230	     -4.59578183	      0.56866888	     69.93578924	     11.60544295	    -69.93578924	      8.90034679	     79.21869483	     81.05548744	      0.00000000	     -0.00000000	     -0.00000000	      0.00000000
      3.07537688	     -2.80852349	      1.18955799	     -1.18955799	      2.80852349	     -0.56866888	      4.59578183	      2.06577230	     -2.06577230	     -4.59578183	      0.56866888	     69.93578924	     11.60544295	    -69.93578924	      8.90034679	     79.50721859	     81.11086279	      0.00000000	     -0.00000000	     -0.00000000	      0.00000000
      3.09547739	     -2.80852349	      1.18955799	     -1.18955799	      2.80852349	     -0.56866888	      4.59578183	      2.06577230	     -2.06577230	     -4.59578183	      0.56866888	     69.93578924	     11.60544295	    -69.93578924	      8.90034679	     79.77076287	     81.05439811	      0.00000000	     -0.00000000	     -0.00000000	      0.00000000
      3.11557789	     -2.80852349	      1.18955799	     -1.18955799	      2.80852349	     -0.56866888	      4.59578183	      2.06577230	     -2.06577230	     -4.59578183	      0.56866888	     69.93578924	     11.60544295	    -69.93578924	      8.90034679	     80.04349847	     81.11132779	      0.00000000	     -0.00000000	     -0.00000000	      0.00000000
      3.13567839	     -2.80852349	      1.18955799	     -1.18955799	      2.80852349	     -0.56866888	      4.59578183	      2.06577230	     -2.06577230	     -4.59578183	      0.56866888	     69.93578924	     11.60544295	    -69.93578924	      8.90034679	     80.29111443	     81.05402510	      0.00000000	     -0.00000000	     -0.00000000	      0.00000000
      3.15577889	     -2.80852349	      1.18955799	     -1.18955799	      2.80852349	     -0.56866888	      4.59578183	      2.06577230	     -2.06577230	     -4.59578183	      0.56866888	     69.93578924	     11.60544295	    -69.93578924	      8.90034679	     80.54777181	     81.11205183	      0.00000000	     -0.00000000	     -0.00000000	      0.00000000
      3.17587940	     -2.80852349	      1.18955799	     -1.18955799	      2.80852349	     -0.56866888	      4.59578183	      2.06577230	     -2.06577230	     -4.59578183	      0.56866888	     69.93578924	     11.60544295	    -69.93578924	      8.90034679	     80.77932806	     81.05399248	      0.00000000	     -0.00000000	     -0.00000000	      0.00000000
      3.19597990	     -2.80852349	      1.18955799	     -1.18955799	      2.80852349	     -0.56866888	      4.59578183	      2.06577230	     -2.06577230	     -4.59578183	      0.56866888	     69.93578924	     11.60544295	    -69.93578924	      8.90034679	     81.01972874	     81.11291615	      0.00000000	     -0.00000000	     -0.00000000	      0.00000000
      3.21608040	     -2.80852349	      1.18955799	     -1.18955799	      2.80852349	     -0.56866888	      4.59578183	      2.06577230	     -2.06577230	     -4.59578183	      0.56866888	     69.93578924	     11.60544295	    -69.93578924	      8.90034679	     81.23515429	     81.05420718	      0.00000000	     -0.00000000	     -0.00000000	      0.00000000
